<?xml version="1.0" standalone="no"?>
<!DOCTYPE svg PUBLIC "-//W3C//DTD SVG 20010904//EN"
 "http://www.w3.org/TR/2001/REC-SVG-20010904/DTD/svg10.dtd">
<svg version="1.0" xmlns="http://www.w3.org/2000/svg"
 width="160.000000pt" height="160.000000pt" viewBox="0 0 160.000000 160.000000"
 preserveAspectRatio="xMidYMid meet">
<metadata>
Created by potrace 1.11, written by Peter Selinger 2001-2013
</metadata>
<g transform="translate(0.000000,160.000000) scale(0.100000,-0.100000)"
fill="#000000" stroke="none">
<path d="M735 1565 c-88 -13 -238 -54 -243 -67 -2 -4 -10 -8 -17 -8 -20 0 -85
-32 -85 -42 0 -4 -5 -8 -11 -8 -19 0 -102 -63 -153 -115 -90 -93 -141 -184
-181 -320 -50 -174 -50 -307 0 -455 107 -314 380 -503 745 -515 98 -3 129 0
209 21 205 53 365 158 469 307 40 57 96 179 106 227 2 14 9 45 14 69 6 24 9
96 8 160 -3 98 -8 130 -33 206 -56 166 -150 295 -294 403 -168 125 -333 167
-534 137z"/>
</g>
</svg>
