<?xml version="1.0" standalone="no"?>
<!DOCTYPE svg PUBLIC "-//W3C//DTD SVG 20010904//EN"
 "http://www.w3.org/TR/2001/REC-SVG-20010904/DTD/svg10.dtd">
<svg version="1.0" xmlns="http://www.w3.org/2000/svg"
 width="700.000000pt" height="700.000000pt" viewBox="0 0 700.000000 700.000000"
 preserveAspectRatio="xMidYMid meet">
<metadata>
Created by potrace 1.11, written by Peter Selinger 2001-2013
</metadata>
<g transform="translate(0.000000,700.000000) scale(0.100000,-0.100000)"
fill="#000000" stroke="none">
<path d="M2167 6094 c-1 -2 -18 -6 -36 -9 -42 -7 -146 -49 -166 -67 -8 -7 -32
-26 -53 -43 -77 -59 -151 -182 -167 -276 -46 -260 87 -492 331 -580 86 -31
236 -31 319 0 155 58 253 155 311 306 22 58 27 87 28 165 0 52 -6 113 -13 135
-55 174 -182 303 -345 350 -51 15 -199 28 -209 19z"/>
<path d="M3650 6084 c-275 -52 -444 -242 -443 -499 0 -70 12 -118 47 -190 56
-113 146 -195 264 -238 97 -36 129 -42 284 -51 212 -13 374 -135 449 -337 40
-108 28 -267 -28 -378 -69 -135 -213 -241 -363 -266 -19 -4 -233 -7 -475 -7
-333 -1 -455 -4 -500 -15 -264 -60 -433 -302 -393 -562 31 -204 175 -352 383
-396 55 -11 168 -15 525 -15 442 -2 457 -2 525 -24 295 -94 434 -416 298 -692
-66 -135 -213 -244 -363 -268 -19 -3 -411 -6 -870 -6 -518 0 -852 -5 -880 -11
-208 -46 -365 -245 -374 -475 -9 -244 123 -430 345 -485 79 -19 106 -20 982
-16 496 1 912 6 923 9 12 4 37 9 55 12 296 49 566 192 789 415 123 124 172
187 246 319 80 143 154 353 170 482 3 25 8 70 13 100 12 94 4 333 -14 400 -2
8 -7 31 -10 50 -22 134 -126 384 -215 515 -47 68 -61 88 -107 142 l-21 26 53
66 c129 161 219 339 270 537 26 102 29 116 43 219 8 64 8 285 -2 347 -41 285
-139 523 -299 728 -244 314 -581 506 -987 565 -83 12 -254 12 -320 -1z"/>
</g>
</svg>
