<?xml version="1.0" standalone="no"?>
<!DOCTYPE svg PUBLIC "-//W3C//DTD SVG 20010904//EN"
 "http://www.w3.org/TR/2001/REC-SVG-20010904/DTD/svg10.dtd">
<svg version="1.0" xmlns="http://www.w3.org/2000/svg"
 width="768.000000pt" height="768.000000pt" viewBox="0 0 768.000000 768.000000"
 preserveAspectRatio="xMidYMid meet">
<metadata>
Created by potrace 1.11, written by Peter Selinger 2001-2013
</metadata>
<g transform="translate(0.000000,768.000000) scale(0.100000,-0.100000)"
fill="#000000" stroke="none">
<path d="M3599 7676 c-2 -2 -47 -7 -99 -10 -52 -4 -106 -8 -120 -10 -14 -3
-47 -7 -75 -10 -27 -3 -60 -8 -71 -10 -23 -5 -75 -13 -134 -22 -78 -12 -373
-89 -490 -129 -249 -84 -567 -228 -725 -329 -30 -20 -58 -36 -60 -36 -5 0
-131 -81 -160 -102 -5 -4 -57 -42 -115 -84 -58 -43 -121 -90 -140 -107 -19
-16 -62 -52 -95 -80 -189 -159 -482 -486 -638 -711 -375 -544 -608 -1192 -664
-1851 -17 -199 -8 -608 18 -802 5 -43 12 -94 15 -113 18 -137 82 -404 141
-585 116 -359 320 -762 525 -1040 149 -202 248 -317 417 -485 426 -423 911
-723 1471 -910 85 -29 162 -54 170 -55 8 -2 60 -15 115 -30 55 -14 111 -28
125 -30 14 -3 36 -7 50 -10 77 -16 215 -37 320 -50 211 -26 724 -27 855 -1 11
2 52 7 90 11 39 4 79 9 90 11 11 2 32 6 46 9 14 3 61 12 105 20 43 9 90 18
104 21 14 3 33 7 42 10 9 3 25 7 35 9 121 26 400 121 563 190 753 321 1382
877 1801 1590 186 316 360 758 424 1075 56 277 63 323 82 525 15 163 7 693
-12 765 -2 8 -7 40 -10 70 -6 55 -26 172 -46 265 -6 28 -13 61 -15 75 -7 33
-40 156 -65 245 -30 103 -98 290 -134 370 -17 39 -32 73 -33 78 -3 18 -119
248 -169 336 -86 150 -283 443 -323 481 -3 3 -39 46 -80 95 -468 562 -1133
996 -1840 1200 -69 20 -132 38 -140 40 -8 2 -45 10 -83 19 -37 9 -82 18 -100
21 -17 3 -39 8 -47 10 -8 3 -46 9 -85 15 -38 6 -81 13 -95 15 -14 2 -54 7 -90
10 -36 4 -76 9 -90 11 -29 6 -556 15 -561 10z"/>
</g>
</svg>
